<?xml version="1.0" encoding="UTF-8"?>
<svg width="300" height="200" version="1.1" xmlns="http://www.w3.org/2000/svg" xmlns:xlink="http://www.w3.org/1999/xlink">
	<g id="b" fill="none" stroke="#000" stroke-linecap="round" stroke-width="6">
		<g id="a">
			<path d="m242.58 34.761s-2.1143-1.8181-12.175-1.8181c-13.274 0-24.349 9.7641-24.349 26.23 0 23.397 30.351 36.282 30.351 36.282s40.667-2.1894 40.667-36.392c0-20.208-13.697-26.331-22.32-26.331-10.06 0-12.175 2.0291-12.175 2.0291z" fill="#ff886c" stroke="#000" stroke-width="1"/>
			<path d="m236.01 85.755c0.38553 0 0.77714-0.1116 1.1242-0.34088 0.93342-0.62293 1.185-1.881 0.56205-2.8143-0.0305-0.04464-3.7173-5.8986-3.7173-19.165 0-13.077 9.2889-20.66 9.3841-20.735 0.87453-0.70004 1.0166-1.9763 0.31654-2.8509-0.70207-0.87454-1.9784-1.0166-2.8529-0.31654-0.44438 0.35509-10.906 8.8955-10.906 23.902 0 14.65 4.2184 21.147 4.399 21.417 0.38959 0.58641 1.0348 0.90294 1.6903 0.90294z" fill="#dd2e44" stroke="none" stroke-width="2"/>
			<path d="m281.8 32.983s-9.892-10.145-20.291-10.145c-12.431 0-16.107 10.018-16.107 10.018s-1.2682-8.1164-10.145-8.1164c-8.8772 0-14.078 6.3409-14.078 6.3409s7.2276 4.3118 9.3841 5.1985c5.6834 2.3395 23.081 7.2276 31.197 5.1985 8.1162-2.0291 20.039-8.4938 20.039-8.4938z" fill="#5c913b" stroke="#000" stroke-width=".5"/>
			<path d="m244.6 35.386c-1.2893 0-2.3357-1.0464-2.3357-2.3357 0-8.0373 2.8029-15.451 7.6916-20.337 0.91329-0.91329 2.3894-0.91329 3.3027 0 0.91329 0.91329 0.91329 2.3918 0 3.3027-4.0198 4.0175-6.3228 10.226-6.3228 17.034 0 1.2893-1.0464 2.3357-2.3357 2.3357z" fill="#97311c" stroke="#000" stroke-width=".5"/>
			<path d="m212.01 33.491s9.892-10.145 20.291-10.145c12.431 0 16.107 10.018 16.107 10.018s-8.2422 10.653-16.358 8.6236c-8.1163-2.0293-20.039-8.4958-20.039-8.4958z" fill="#77b255" stroke="#000" stroke-width=".5"/>
		</g>
		<path d="m281.64 88.954c-20.293-12.216-39.416-26.444-60.674-37.006-7.4942-3.3941-15.324-6.014-23.282-8.0757"/>
		<path d="m285.13 35.686c-11.245 8.3211-23.97 15.501-38.915 22.609-11.569 5.2667-21.757 15.222-32.168 22.238-4.2802 3.1756-8.6378 6.2466-13.064 9.2154"/>
	</g>
	<use transform="translate(-137.11 92.286)" xlink:href="#a"/>
	<use transform="translate(-45.705 92.286)" xlink:href="#b"/>
	<use transform="translate(-91.41 .000191)" xlink:href="#a"/>
	<use transform="translate(-182.81 .000191)" xlink:href="#a"/>
</svg>
